PathFileType	4	(X/Y/Z)	C:\Users\°ÂÌØÂü\Desktop\20210112\bx_n_5_901-Unnamed.trc
DataRate	CameraRate	NumFrames	NumMarkers	Units	OrigDataRate	OrigDataStartFrame	OrigNumFrames
50.00	50.00	       7	0	mm	50.00	294	       470
Frame#	Time	
		

294	5.860	-232.61717	95.17860	1547.20349	-751.95801	228.73599	1033.55872	-542.16095	93.72359	1159.86633	-466.25766	271.43713	1353.23865	-732.45441	-14.88330	805.30945				-824.46130	274.93076	734.30725				-833.28235	251.50789	630.09998	-758.47253	206.58427	536.76257	-843.87512	259.61749	486.93564	-518.13013	-72.94609	143.51164	-549.80750	-22.31963	162.64571	-795.55255	33.00003	172.26819	-601.60138	27.01715	168.33971				-720.65509	158.98193	221.44788	-799.23566	182.77316	180.94298	-773.52039	231.71075	201.48941	-594.63202	219.52330	174.30412	-882.60455	296.08044	144.69267	-557.48950	252.82378	164.21385	-660.47992	298.91129	156.40823	-623.51007	306.66476	158.64383	-528.17261	304.07574	146.56660	-460.43985	-75.87560	1344.68152				-831.48590	-54.86188	472.88745	-764.04413	-26.81824	202.29376	-675.78802	50.30873	163.61986	-875.80023	-78.62018	141.04199				-818.57068	-71.73823	748.87689	-809.69995	-45.01145	608.55908	-808.19678	-42.58710	560.53564	-677.58734	175.73653	162.82297	-648.54279	-69.98004	160.02983	-784.17657	143.54552	569.43182	-605.22137	-74.31567	156.70203	-843.07202	281.56531	867.40118	-734.55737	217.94276	795.75055	-821.14020	247.86971	565.93237	-749.05530	7.53699	524.05536	-728.65515	62.81018	220.06235	
295	5.880	-224.06233	96.19495	1531.11926	-755.93933	231.43436	1033.51855	-541.91681	94.26962	1149.91089	-460.49854	271.98172	1340.91443	-735.99384	-13.88124	805.19617	-941.50000	84.35198	1085.94800	-827.55719	274.45508	733.40656	-823.87939	-80.29744	864.62189	-835.98407	251.75298	629.33246	-760.91418	206.66154	536.25800	-846.32611	259.99829	486.27515	-518.29681	-73.16850	143.21381	-549.90564	-22.35325	162.66415	-796.10815	32.64089	172.38991	-601.46222	26.70290	168.22728				-721.25421	159.08430	221.51396	-799.38947	182.79128	180.80295	-773.75012	231.75395	201.49419	-594.91138	219.54475	174.07425	-882.63208	296.17636	144.78587	-557.77838	252.91199	164.26709	-660.33636	298.80295	156.16118	-623.45575	306.60138	158.50330	-528.09814	304.09131	146.56194	-454.16071	-74.27990	1332.24280				-833.36255	-55.42826	472.90271	-764.16888	-26.92265	202.08868	-675.91583	49.94648	163.78674	-875.78961	-78.57214	141.09050				-821.73492	-72.03769	748.34967	-812.49438	-44.82366	608.16125	-810.78162	-42.22910	559.87085	-677.63580	175.99963	162.81691	-648.68152	-69.68139	160.05656	-786.69232	144.34709	569.09479	-605.22815	-74.23137	156.78493	-846.54053	282.24472	866.88947	-737.70654	217.75519	794.75049	-823.63696	248.05656	565.36865	-751.23279	7.75466	524.19971	-728.65515	62.81018	220.06235	
296	5.900	-216.08276	97.85413	1514.73462	-759.31439	232.40723	1031.67822	-541.04547	94.24246	1140.03833	-455.48477	272.32324	1327.97021	-739.55481	-13.80981	804.45148	-943.07227	84.86343	1086.40247	-830.87543	274.75790	732.82318	-827.40704	-78.67351	863.58582	-838.97980	252.48280	628.71521	-763.75580	207.29878	536.05115	-848.88354	260.19205	485.46768	-518.13770	-72.61995	143.34862	-549.91583	-22.21484	162.79660	-795.71124	32.68510	171.90302	-601.54132	26.87347	168.35310				-721.49750	158.88680	221.68138	-799.61108	182.85413	180.45139	-773.87500	231.89041	201.41736	-595.01373	219.72292	174.22679	-882.72968	296.12640	144.75232	-557.91241	252.89323	164.15211	-660.53528	298.95059	156.03426	-623.75214	306.57428	158.46593	-528.09381	304.12735	146.39233	-447.44406	-72.80663	1318.75745				-835.24500	-55.17427	472.66125	-764.28632	-26.86850	201.79482	-676.05798	50.20324	163.91858	-875.80023	-78.62018	141.04199				-825.17798	-71.72829	747.76062	-814.72101	-44.56839	607.76605	-812.99158	-42.05397	559.63556	-677.58917	176.13515	162.95570	-648.68152	-69.68139	160.05656	-789.99957	144.86981	568.45801	-605.18713	-74.11742	156.84171	-850.53497	282.44907	866.35126				-826.57007	248.28004	564.19946	-753.32275	7.86096	523.87421	-729.18518	62.86836	219.92633	
297	5.920	-208.76308	99.20183	1498.48132	-762.00256	233.19272	1029.30371				-450.85693	272.44464	1314.67932	-743.14014	-14.03677	803.91132	-944.42072	85.84011	1086.70557	-834.70416	275.22781	732.19324	-831.34186	-78.40318	862.73798	-842.28900	252.39549	627.65076	-766.65430	206.88315	535.30481	-850.99463	260.87955	484.87469	-518.14038	-72.71929	143.21826	-549.90564	-22.35325	162.66415	-795.77917	32.71076	172.01083	-601.67462	26.96885	168.29556				-721.79840	159.18681	221.60271	-799.92004	183.16006	180.36575	-774.39600	232.25269	201.14308	-595.10162	219.51372	174.33858	-882.62244	296.12650	144.81627	-558.16229	252.85158	164.05115	-660.54828	298.88055	156.01439	-623.71790	306.62170	158.69186	-528.14099	304.18759	146.47108	-440.90710	-71.89180	1305.35132				-836.73462	-55.22239	471.96799	-764.35291	-26.79113	201.81151	-676.02716	50.30162	163.90785	-875.78961	-78.57214	141.09050				-828.35004	-72.32041	747.37738	-816.93365	-44.13162	607.04303	-814.95721	-42.14172	559.20441	-677.74243	175.85068	163.58183	-648.65338	-69.45507	160.40479	-792.94940	145.40390	568.41406	-605.40057	-73.98000	157.13615	-854.44806	282.66223	865.39380				-829.27118	248.83453	563.90814	-755.16388	8.46434	523.84009	-729.34833	62.93058	219.88776	
298	5.940	-202.23199	100.68292	1481.68481	-764.69073	233.36259	1027.14124	-798.41925	65.33224	564.03027	-445.81897	273.17905	1302.60144	-746.48895	-13.21723	803.49591	-946.09723	85.99132	1086.89368	-837.91565	276.48050	731.37823	-835.06384	-77.96865	861.89514	-845.02014	253.17900	626.93433	-769.47339	206.68253	534.96216	-852.73132	260.77808	483.94583	-518.08130	-72.75514	143.08293	-550.11029	-22.00459	162.64702	-796.18274	32.85822	171.99901	-601.68237	27.01576	168.23825	-794.87897	145.04088	567.92920	-722.17181	159.35966	221.70500	-800.34381	183.22365	180.48909	-774.46472	232.17482	201.06313	-595.32098	219.59738	174.16913	-882.62738	296.07330	144.75536	-558.21606	252.98491	164.45103	-660.63617	299.01166	156.00279	-623.56555	306.64679	158.57422	-528.13721	304.07422	146.50717	-434.50809	-70.50611	1291.83240				-837.97620	-54.91693	471.74954	-764.33771	-26.99364	202.13518	-675.84039	50.44208	163.82010	-875.78961	-78.57214	141.09050				-830.66742	-71.75111	746.64032	-818.68933	-43.71310	606.89966	-816.38086	-41.37803	558.83069	-677.83685	175.91748	163.70695	-648.58734	-69.31728	160.35571				-605.28589	-73.94650	156.91859	-858.02856	283.11435	864.72974				-831.46881	249.16214	563.41473	-756.71393	9.22870	523.38196	-729.34833	62.93058	219.88776	
299	5.960	-194.92886	101.50600	1466.04065	-766.92279	234.01509	1024.95544	-800.10693	66.19219	563.75684	-441.09750	273.81128	1290.08704	-749.38837	-11.88980	803.33899	-948.24500	86.75680	1087.73560	-841.36597	277.22891	730.40472	-837.57233	-78.50590	861.89996	-846.82825	253.77531	626.38959	-770.51489	207.88887	535.57648	-854.12885	261.34753	483.27994	-518.12610	-72.80840	143.31311	-549.99597	-22.06235	162.47649	-796.18713	32.91218	172.10788	-601.81091	27.02803	168.02454	-796.68689	145.35207	567.73615	-722.15771	159.33347	221.94012	-800.34143	183.41409	180.35773	-774.52277	232.12053	200.87010	-595.48883	219.67406	174.13008	-882.62555	296.09015	144.78024	-557.87878	252.91663	164.59213	-660.54828	298.88055	156.01439	-623.53479	306.60709	158.52986	-528.00049	304.03516	146.57465	-428.13303	-68.81030	1278.10950				-839.29657	-54.71745	471.27295	-764.26599	-26.83257	201.93202	-675.81665	50.55200	163.55406	-875.85522	-78.73365	141.22168				-832.71991	-71.05852	745.84314	-820.18842	-43.14930	606.19714	-818.25806	-41.13611	558.72223	-677.75653	176.11421	163.80836	-648.68359	-69.16805	160.32422				-605.42920	-73.72995	156.76617	-861.16803	284.35974	864.29883				-833.52643	249.30188	562.76355	-758.52863	9.13433	523.36072	-729.34833	62.93058	219.88776	
300	5.980	-188.89856	102.90906	1449.76855	-769.95496	233.65883	1021.76666				-436.39682	274.27222	1277.06653	-752.15790	-10.99497	803.28101	-949.45166	87.50652	1088.14990	-844.08545	277.90445	729.34399	-840.29620	-78.15945	861.66290	-849.12543	253.96956	625.62506	-772.25317	208.11957	535.32251	-855.58636	261.49567	482.69247	-518.08850	-72.81383	143.12022	-549.76489	-21.86072	162.60126	-796.17261	32.82470	172.22049	-601.78601	27.32897	168.11021	-798.62579	145.80609	567.53302	-722.14795	159.38208	221.65126	-800.29175	183.30341	180.25108	-774.66803	231.93532	200.73697	-595.29468	219.23813	173.87973	-882.61035	296.01071	144.57469	-557.77655	252.73808	164.32809	-660.54370	299.10001	155.98940	-623.59106	306.38483	158.26649	-528.28882	304.01123	146.29596	-422.05087	-67.49530	1264.40576				-840.02057	-54.50108	470.88943	-764.02576	-26.77833	201.87248	-675.70026	50.39045	163.41594	-875.78961	-78.57214	141.09050				-834.81989	-70.75713	745.85730	-822.46863	-42.84090	606.08502	-819.45459	-40.74486	558.27063	-677.83685	175.91748	163.70695	-648.68689	-68.90511	160.53215				-605.29913	-73.75153	156.85858	-864.16046	285.52957	863.75159				-835.15601	249.55864	562.14673	-759.84784	9.59265	523.15723	-729.43561	62.95203	219.76042	
